<?xml version="1.0" encoding="UTF-8"?>
<svg id="Logo" xmlns="http://www.w3.org/2000/svg" baseProfile="tiny" version="1.2" viewBox="0 0 285.7039 82.8567">
  <!-- Generator: Adobe Illustrator 29.8.4, SVG Export Plug-In . SVG Version: 2.1.1 Build 6)  -->
  <path id="Claim" d="M1.389,63.7868h7.1813c2.7092,0,4.5375,1.6982,4.5375,4.2138,0,1.8701-.8175,3.203-2.6663,3.8056v.0645c1.5695.5586,2.0637,1.6337,2.2141,3.913.1719,2.4716.4307,3.0956.71,3.289v.0859h-2.0861c-.3223-.2793-.3868-.8603-.5586-3.4403-.1504-2.2568-1.0538-3.0527-3.1175-3.0527H3.3237v6.493h-1.9348v-15.3717ZM7.8828,71.0962c2.1496,0,3.2249-1.0752,3.2249-2.8163,0-1.8701-.8604-2.8163-3.1175-2.8163H3.3237v5.6327h4.559ZM14.4615,73.6118c0-3.2245,2.1076-5.8475,5.2681-5.8475,1.3331,0,2.4299.4082,3.2474,1.1611,1.2247,1.0957,1.8703,2.9023,1.8703,5.0946h-8.6004c.1289,2.2578,1.3546,3.9774,3.5902,3.9774,1.6125,0,2.6878-.7734,3.0755-2.2792h1.6984c-.5167,2.3867-2.258,3.7411-4.7739,3.7411-3.3968,0-5.3755-2.623-5.3755-5.8475ZM22.977,72.7085c-.1074-2.2138-1.2472-3.5683-3.2474-3.5683-2.0637,0-3.1819,1.5478-3.4398,3.5683h6.6872ZM28.5234,64.862c0,.623-.4942,1.1172-1.1183,1.1172-.6016,0-1.0958-.4941-1.0958-1.1172,0-.6025.4942-1.0967,1.0958-1.0967.6241,0,1.1183.4941,1.1183,1.0967ZM26.5457,68.0436h1.7414v11.115h-1.7414v-11.115ZM30.6525,68.0436h1.7414v1.5908h.043c.6885-1.0752,1.8713-1.8486,3.2689-1.8486,1.3546,0,2.4289.6875,2.9026,1.9775h.043c.7091-1.2685,2.0422-1.9775,3.3968-1.9775,1.9787,0,3.3763,1.2685,3.3763,3.5683v7.8045h-1.7424v-7.7186c0-1.3759-.9239-2.1923-2.0422-2.1923-1.4406,0-2.7307,1.247-2.7307,2.9882v6.9227h-1.7414v-7.7186c0-1.3759-.7745-2.1923-1.9142-2.1923-1.3546,0-2.8596,1.247-2.8596,2.9882v6.9227h-1.7414v-11.115ZM50.8204,79.3734c-2.1066,0-3.7631-.9892-3.7631-3.0956,0-2.623,2.0646-3.1601,4.8383-3.5907,1.5695-.2363,2.6663-.3867,2.6663-1.5908,0-1.247-.9034-1.956-2.4944-1.956-1.8058,0-2.7092.7734-2.7737,2.4511h-1.6769c.0645-2.1503,1.4835-3.7626,4.4291-3.7626,2.3655,0,4.1068.8808,4.1068,3.5253v5.2889c0,.7744.1504,1.247.796,1.2256.1074,0,.2364,0,.3868-.043h.0645v1.2685c-.2149.0859-.4942.1719-.9464.1719-1.1398,0-1.7414-.5156-1.9133-1.6552h-.0215c-.6671.8594-1.8068,1.7627-3.6986,1.7627ZM54.5835,75.0522v-1.8916c-.5811.3652-1.591.6445-2.5373.8164-1.7414.3223-3.139.624-3.139,2.2578,0,1.4834,1.1612,1.8056,2.3,1.8056,2.3225,0,3.3763-1.6982,3.3763-2.9882ZM58.411,79.7816h1.6125c.1719,1.2256,1.3331,1.6992,3.053,1.6992,2.0432,0,3.1819-.9248,3.1819-2.8593v-1.5703h-.043c-.8165,1.0537-1.6984,1.7207-3.2894,1.7207-2.8811,0-4.8598-2.3007-4.8598-5.5038,0-3.4618,2.1721-5.4823,4.7524-5.4823,1.6125,0,2.6448.623,3.3968,1.6767h.043v-1.4189h1.7424v10.5134c0,1.2675-.3662,2.2353-1.0108,2.9452-.8604.9023-2.1936,1.3545-3.8705,1.3545-2.8811,0-4.5151-1.1611-4.7085-3.0751ZM66.3873,73.1821c0-2.4296-1.0313-3.9345-3.3968-3.9345-2.0861,0-3.139,1.6337-3.139,4.0419,0,2.4287,1.0958,4.0204,3.1605,4.0204,2.5588,0,3.3753-1.7851,3.3753-4.1278ZM72.3439,64.862c0,.623-.4942,1.1172-1.1183,1.1172-.6016,0-1.0958-.4941-1.0958-1.1172,0-.6025.4942-1.0967,1.0958-1.0967.6241,0,1.1183.4941,1.1183,1.0967ZM70.3662,68.0436h1.7414v11.115h-1.7414v-11.115ZM74.473,68.0436h1.7414v1.4619h.043c.796-1.0537,1.9142-1.7197,3.5267-1.7197,2.3215,0,3.7406,1.2685,3.7406,3.5683v7.8045h-1.7414v-7.6541c0-1.4404-.9464-2.2568-2.5159-2.2568-1.7629,0-3.053,1.247-3.053,3.0741v6.8367h-1.7414v-11.115ZM87.8034,64.862c0,.623-.4942,1.1172-1.1183,1.1172-.6016,0-1.0958-.4941-1.0958-1.1172,0-.6025.4942-1.0967,1.0958-1.0967.6241,0,1.1183.4941,1.1183,1.0967ZM85.8257,68.0436h1.7414v11.115h-1.7414v-11.115ZM89.9325,68.0436h1.7414v1.4619h.043c.796-1.0537,1.9142-1.7197,3.5267-1.7197,2.3215,0,3.7406,1.2685,3.7406,3.5683v7.8045h-1.7414v-7.6541c0-1.4404-.9464-2.2568-2.5159-2.2568-1.7629,0-3.053,1.247-3.053,3.0741v6.8367h-1.7414v-11.115ZM101.0058,79.7816h1.6125c.1719,1.2256,1.3331,1.6992,3.053,1.6992,2.0432,0,3.1819-.9248,3.1819-2.8593v-1.5703h-.043c-.8165,1.0537-1.6984,1.7207-3.2894,1.7207-2.8811,0-4.8598-2.3007-4.8598-5.5038,0-3.4618,2.1721-5.4823,4.7524-5.4823,1.6125,0,2.6448.623,3.3968,1.6767h.043v-1.4189h1.7424v10.5134c0,1.2675-.3662,2.2353-1.0108,2.9452-.8604.9023-2.1936,1.3545-3.8705,1.3545-2.8811,0-4.5151-1.1611-4.7085-3.0751ZM108.9822,73.1821c0-2.4296-1.0313-3.9345-3.3968-3.9345-2.0861,0-3.139,1.6337-3.139,4.0419,0,2.4287,1.0968,4.0204,3.1605,4.0204,2.5588,0,3.3753-1.7851,3.3753-4.1278ZM116.8091,68.0436h1.7414v1.5908h.043c.6885-1.0752,1.8713-1.8486,3.2689-1.8486,1.3546,0,2.4289.6875,2.9026,1.9775h.043c.7091-1.2685,2.0422-1.9775,3.3968-1.9775,1.9787,0,3.3763,1.2685,3.3763,3.5683v7.8045h-1.7424v-7.7186c0-1.3759-.9239-2.1923-2.0422-2.1923-1.4406,0-2.7307,1.247-2.7307,2.9882v6.9227h-1.7414v-7.7186c0-1.3759-.7745-2.1923-1.9142-2.1923-1.3546,0-2.8596,1.247-2.8596,2.9882v6.9227h-1.7414v-11.115ZM133.2569,73.6118c0-3.2245,2.1076-5.8475,5.2681-5.8475,1.3331,0,2.4299.4082,3.2474,1.1611,1.2247,1.0957,1.8703,2.9023,1.8703,5.0946h-8.6004c.1289,2.2578,1.3546,3.9774,3.5902,3.9774,1.6125,0,2.6878-.7734,3.0755-2.2792h1.6984c-.5167,2.3867-2.258,3.7411-4.7739,3.7411-3.3968,0-5.3755-2.623-5.3755-5.8475ZM141.7724,72.7085c-.1074-2.2138-1.2472-3.5683-3.2474-3.5683-2.0637,0-3.1819,1.5478-3.4398,3.5683h6.6872ZM144.717,73.6333c0-3.6982,2.1291-5.8475,4.8813-5.8475,1.5695,0,2.7737.7734,3.4828,1.8271h.0439v-5.826h1.7414v15.3717h-1.7414v-1.3545h-.0439c-.838,1.0752-1.8703,1.6767-3.4398,1.6767-3.0315,0-4.9243-2.2783-4.9243-5.8475ZM153.2324,73.6548c0-2.58-1.2472-4.3856-3.5482-4.3856-2.1076,0-3.1819,1.8916-3.1819,4.3856,0,2.5156,1.0743,4.3642,3.2034,4.3642,2.4729,0,3.5267-1.8486,3.5267-4.3642ZM159.2096,64.862c0,.623-.4942,1.1172-1.1183,1.1172-.6016,0-1.0958-.4941-1.0958-1.1172,0-.6025.4942-1.0967,1.0958-1.0967.6241,0,1.1183.4941,1.1183,1.0967ZM157.2318,68.0436h1.7414v11.115h-1.7414v-11.115ZM160.7146,73.6118c0-3.2245,2.0646-5.8475,5.3755-5.8475,2.6233,0,4.3647,1.5048,4.7524,3.87h-1.7638c-.2578-1.5058-1.3107-2.4296-2.9886-2.4296-2.3645,0-3.5902,1.956-3.5902,4.4071s1.2257,4.3856,3.5902,4.3856c1.8068,0,2.8811-1.0322,3.0325-2.7519h1.7199c-.2364,2.666-1.9787,4.2138-4.7524,4.2138-3.3109,0-5.3755-2.623-5.3755-5.8475ZM174.4756,64.862c0,.623-.4942,1.1172-1.1183,1.1172-.6016,0-1.0958-.4941-1.0958-1.1172,0-.6025.4942-1.0967,1.0958-1.0967.6241,0,1.1183.4941,1.1183,1.0967ZM172.4979,68.0436h1.7414v11.115h-1.7414v-11.115ZM176.6048,68.0436h1.7414v1.4619h.043c.796-1.0537,1.9142-1.7197,3.5267-1.7197,2.3215,0,3.7406,1.2685,3.7406,3.5683v7.8045h-1.7414v-7.6541c0-1.4404-.9464-2.2568-2.5159-2.2568-1.7629,0-3.053,1.247-3.053,3.0741v6.8367h-1.7414v-11.115ZM187.3333,73.6118c0-3.2245,2.1076-5.8475,5.2681-5.8475,1.3331,0,2.4299.4082,3.2474,1.1611,1.2247,1.0957,1.8703,2.9023,1.8703,5.0946h-8.6004c.1289,2.2578,1.3546,3.9774,3.5902,3.9774,1.6125,0,2.6878-.7734,3.0755-2.2792h1.6984c-.5167,2.3867-2.258,3.7411-4.7739,3.7411-3.3968,0-5.3755-2.623-5.3755-5.8475ZM195.8488,72.7085c-.1074-2.2138-1.2472-3.5683-3.2474-3.5683-2.0637,0-3.1819,1.5478-3.4398,3.5683h6.6872ZM199.0092,80.6849c.5157-.1504,1.0313-.5371,1.0313-1.5048-.6876.0215-1.1603-.4512-1.1603-1.0967,0-.623.4727-1.0537,1.1173-1.0537.7315,0,1.1398.624,1.1398,1.6562,0,1.999-.9024,2.7519-2.1281,2.9667v-.9678ZM207.9329,77.0727v-7.6102h-1.6134v-1.4189h1.6134v-3.5048h1.7414v3.5048h2.1496v1.4189h-2.1496v7.2235c0,.7744.4082,1.0322,1.1183,1.0322.3438,0,.7305-.0859.9239-.1504h.0645v1.5048c-.4082.0859-.8809.1504-1.3976.1504-1.4191,0-2.4504-.5801-2.4504-2.1503ZM212.8992,73.6118c0-3.2245,2.0646-5.8475,5.3755-5.8475,3.3333,0,5.354,2.623,5.354,5.8475s-2.0207,5.8475-5.354,5.8475c-3.3109,0-5.3755-2.623-5.3755-5.8475ZM221.8444,73.6118c0-2.4511-1.2042-4.4071-3.5697-4.4071s-3.5902,1.956-3.5902,4.4071,1.2257,4.3856,3.5902,4.3856,3.5697-1.9345,3.5697-4.3856ZM225.0918,79.7816h1.6125c.1719,1.2256,1.3331,1.6992,3.053,1.6992,2.0432,0,3.1819-.9248,3.1819-2.8593v-1.5703h-.043c-.8165,1.0537-1.6984,1.7207-3.2894,1.7207-2.8811,0-4.8598-2.3007-4.8598-5.5038,0-3.4618,2.1721-5.4823,4.7524-5.4823,1.6125,0,2.6448.623,3.3968,1.6767h.043v-1.4189h1.7424v10.5134c0,1.2675-.3662,2.2353-1.0108,2.9452-.8604.9023-2.1936,1.3545-3.8705,1.3545-2.8811,0-4.5151-1.1611-4.7085-3.0751ZM233.0681,73.1821c0-2.4296-1.0313-3.9345-3.3968-3.9345-2.0861,0-3.139,1.6337-3.139,4.0419,0,2.4287,1.0968,4.0204,3.1605,4.0204,2.5588,0,3.3753-1.7851,3.3753-4.1278ZM236.4229,73.6118c0-3.2245,2.1076-5.8475,5.2681-5.8475,1.3331,0,2.4299.4082,3.2474,1.1611,1.2247,1.0957,1.8703,2.9023,1.8703,5.0946h-8.6004c.1289,2.2578,1.3546,3.9774,3.5902,3.9774,1.6125,0,2.6878-.7734,3.0755-2.2792h1.6984c-.5167,2.3867-2.258,3.7411-4.7739,3.7411-3.3968,0-5.3755-2.623-5.3755-5.8475ZM244.9384,72.7085c-.1074-2.2138-1.2472-3.5683-3.2474-3.5683-2.0637,0-3.1819,1.5478-3.4398,3.5683h6.6872ZM249.1956,77.0727v-7.6102h-1.6134v-1.4189h1.6134v-3.5048h1.7414v3.5048h2.1496v1.4189h-2.1496v7.2235c0,.7744.4082,1.0322,1.1183,1.0322.3438,0,.7305-.0859.9239-.1504h.0645v1.5048c-.4082.0859-.8809.1504-1.3976.1504-1.4191,0-2.4504-.5801-2.4504-2.1503ZM254.8934,63.7868h1.7414v5.7186h.043c.796-1.0537,1.9142-1.7197,3.5267-1.7197,2.3215,0,3.7406,1.2685,3.7406,3.5683v7.8045h-1.7414v-7.6541c0-1.4404-.9464-2.2568-2.5159-2.2568-1.7629,0-3.053,1.247-3.053,3.0741v6.8367h-1.7414v-15.3717ZM265.622,73.6118c0-3.2245,2.1076-5.8475,5.2681-5.8475,1.3331,0,2.4299.4082,3.2474,1.1611,1.2247,1.0957,1.8703,2.9023,1.8703,5.0946h-8.6004c.1289,2.2578,1.3546,3.9774,3.5902,3.9774,1.6125,0,2.6878-.7734,3.0755-2.2792h1.6984c-.5167,2.3867-2.258,3.7411-4.7739,3.7411-3.3968,0-5.3755-2.623-5.3755-5.8475ZM274.1374,72.7085c-.1074-2.2138-1.2472-3.5683-3.2474-3.5683-2.0637,0-3.1819,1.5478-3.4398,3.5683h6.6872ZM277.7061,68.0436h1.7414v1.8486h.043c.6671-1.0752,1.8273-1.9775,3.3118-1.9775.3223,0,.4942.043.7091.1289v1.6767c-.8819-.2363-1.9133-.0645-2.6448.4297-.838.5596-1.4191,1.5488-1.4191,2.8388v6.1698h-1.7414v-11.115ZM285.7039,78.1263c0,.624-.4942,1.1181-1.1183,1.1181-.6016,0-1.0958-.4941-1.0958-1.1181,0-.6015.4942-1.0967,1.0958-1.0967.6241,0,1.1183.4951,1.1183,1.0967Z" fill="#161616"/>
  <path id="Wordmark" d="M79.3234,14.1191v22.2769c0,1.3014.0537,3.9156.119,5.0596h-1.6889l-18.9048-24.346v22.035l3.6274.8369v1.4741h-9.1626v-1.4741l3.2666-.9559V14.599c-.6756-.5566-1.9922-1.0749-2.829-1.2745-.1996-.0422-.595-.119-.9136-.1612v-1.4741h7.7654l16.4098,21.3594V14.0001l-3.6236-.8369v-1.4741h9.1971v1.4741l-3.2628.9559ZM102.6156,10.7717c-8.0456,0-15.335,6.1384-15.335,15.8199,0,9.6048,7.2088,15.7815,15.3734,15.7815,8.0878,0,15.4156-6.0193,15.4156-16.58,0-7.3706-5.5774-15.0214-15.454-15.0214ZM103.3334,40.6188c-7.1704,0-10.9552-8.2075-10.9552-15.102s2.948-12.9485,9.6386-12.9485c6.2952,0,10.8746,7.052,10.8746,14.7834,0,6.8102-2.829,13.2671-9.558,13.2671ZM149.9142,11.6891v1.4741l-3.2666.9981-10.2029,27.2943h-3.0555l-10.318-27.2943-3.305-.9981v-1.4741h12.0684v1.4741l-3.6274.9175,8.0072,21.7164,8.0456-21.797-3.2666-.8369v-1.4741h8.9208ZM206.7169,38.945l-7.9266-12.0348c1.0364-.2764,6.9286-1.7928,6.9286-7.3706,0-4.5414-3.424-8.0078-11.9072-8.0078-5.2166,0-10.4754.1574-11.151.1574v1.4741l3.4624.9559v24.9065l-3.4624.9559v1.4741h12.2257v-1.4741l-4.0228-.9559v-11.2363h3.4662l8.8402,13.6663h7.8076v-1.4358l-4.2608-1.0749ZM192.7753,25.6357h-1.9116v-11.8352c6.372,0,10.0378.8791,10.0378,6.0577,0,3.8273-3.1476,5.7775-8.1262,5.7775ZM256.7216,41.4563v-1.4743l-4.182-.9564V14.1209l4.182-.9564v-1.4743h-13.0636v1.4743l4.1818.9564v24.9048l-4.1818.9564v1.4743h13.0636ZM263.9489,40.5001c2.3498,1.1157,5.6556,1.8728,8.5232,1.8728,6.4123,0,10.9925-3.5066,10.9925-8.4876,0-3.9449-1.8321-6.2959-7.0495-9.0454l-3.5049-1.833c-3.3854-1.7931-4.7793-3.3074-4.7793-5.6982,0-2.9088,2.3897-4.5824,5.7353-4.5824,1.3143,0,2.7083.279,4.1023.8767l2.4295,5.22h1.2746l-.7169-6.9335c-1.6728-.5977-4.8988-1.1157-6.9699-1.1157-6.0937,0-9.8773,3.0683-9.8773,8.0492,0,3.3472,2.31,6.1764,7.0496,8.6469l2.9871,1.554c3.3854,1.7533,4.8191,3.5862,4.8191,6.0967,0,3.387-2.9473,5.3396-6.691,5.3396-1.7922,0-3.5048-.5579-5.6158-1.8728l-2.31-5.2997h-1.2347l.8362,7.2125ZM178.6956,39.9815v1.4741h-12.744v-1.4741l4.1418-.9175-2.8252-7.7698h-11.0742l-2.9058,7.8505,3.7426.8369v1.4741h-9.7192v-1.4741l3.5468-.9943.119-.3609,10.1146-26.9372,3.4662-.8752,10.5944,28.1695,3.543.9981ZM166.4314,28.9832l-4.66-12.7104-4.7022,12.7104h9.3622ZM213.1748,11.6903l-.6771,7.3319h1.3143l2.0711-5.0208h6.8902v25.0243l-4.1421.9564v1.4743h13.0636v-1.4743l-4.1421-.9564V14.0015h6.8902l2.0711,5.0208h1.3143l-.6771-7.3319h-23.9765Z" fill="#161616"/>
  <path id="Brand_x5F_Symbol" d="M15.1163,0h7.2812c0,1.6174.0991.02-3.1205,33.1744h-1.0402C15.0163.0097,15.1163,1.6176,15.1163,0ZM18.6528,42.378C3.0087,42.378-2.1154,32.6611.762,23.8148c1.9964-6.1381,6.3862-11.2106,4.2127-16.6912-.8891-1.9369-1.2417-2.1934-1.8203-2.7558l.6761-1.3c2.425.638,4.7729,2.5572,6.0329,5.6158,2.7201,6.6028-1.0381,10.7578-3.1205,17.2631-2.398,7.4911,1.9355,14.4033,11.9099,14.4033,15.1916,0,16.1089-17.5656,7.2652-21.4098l.2812-1.4983c14.8404,2.3932,17.3536,24.9361-7.5464,24.9361Z" fill="#161616"/>
</svg>